Coordinates
version=1
nRows=13
nColumns=36
inDegrees=yes

Units are S.I. units (second, meters, Newtons, ...)
If the header above contains a line with 'inDegrees', this indicates whether rotational values are in degrees (yes) or radians (no).

endheader
time	pelvis_tilt	pelvis_list	pelvis_rotation	pelvis_tx	pelvis_ty	pelvis_tz	hip_flexion_r	hip_adduction_r	hip_rotation_r	knee_angle_r	knee_angle_r_beta	ankle_angle_r	subtalar_angle_r	mtp_angle_r	hip_flexion_l	hip_adduction_l	hip_rotation_l	knee_angle_l	knee_angle_l_beta	ankle_angle_l	subtalar_angle_l	mtp_angle_l	lumbar_extension	lumbar_bending	lumbar_rotation	arm_flex_r	arm_add_r	arm_rot_r	elbow_flex_r	pro_sup_r	arm_flex_l	arm_add_l	arm_rot_l	elbow_flex_l	pro_sup_l
      6.50000000	    -15.72174862	     -0.82493287	     -4.51501337	     -0.36266023	      0.57264164	     -0.67403215	     97.35360572	    -12.39156383	      4.89227934	    115.91961795	      2.02317900	     38.03766371	      0.98894952	     -7.49999987	     95.56217797	     -8.09978973	      6.71249503	    120.79706456	      2.10830650	     40.99268449	     -4.29903149	     -7.49999987	    -34.29519389	      1.89751596	     -0.44807488	     69.86520372	    -13.73942539	      0.02800024	    101.81467135	    106.39205650	     65.71679312	    -19.73921005	     -4.32161308	    111.89654553	     99.63614218
      6.51000000	    -15.79901252	     -0.79949973	     -4.50584261	     -0.36251030	      0.57559889	     -0.67410931	     97.04176917	    -12.35386602	      4.80580707	    115.48005435	      2.01550717	     38.01811941	      0.96981560	     -7.49999987	     95.26971897	     -8.03819097	      6.60335378	    120.36387097	      2.10074585	     40.96633815	     -4.32280961	     -7.49999987	    -34.10216899	      1.87422002	     -0.48611950	     69.72089129	    -13.76185811	      0.09310798	    101.79042338	    106.39049364	     65.64056772	    -19.70467197	     -4.30059289	    111.85178320	     99.64315160
      6.52000000	    -15.88390805	     -0.78425814	     -4.49989934	     -0.36235186	      0.57884880	     -0.67419399	     96.69680237	    -12.30049828	      4.71285884	    115.00388397	      2.00719643	     37.99186629	      0.95528269	     -7.49999987	     94.95496093	     -7.98060252	      6.49460154	    119.88462462	      2.09238142	     40.93302015	     -4.34459912	     -7.49999987	    -33.90212515	      1.84925187	     -0.53156202	     69.55456152	    -13.81037450	      0.14501477	    101.77293433	    106.38844621	     65.50894253	    -19.71580377	     -4.25035121	    111.82057603	     99.65124012
      6.53000000	    -15.97186621	     -0.76665752	     -4.47956347	     -0.36220026	      0.58237350	     -0.67423863	     96.33066209	    -12.25115781	      4.60879182	    114.48605965	      1.99815869	     37.95176772	      0.93000981	     -7.49999987	     94.60719878	     -7.92294802	      6.36951742	    119.36181082	      2.08325660	     40.88633983	     -4.37541207	     -7.49999987	    -33.69615102	      1.82858757	     -0.56972778	     69.37315445	    -13.87593966	      0.21762024	    101.75501398	    106.38724015	     65.36029405	    -19.75601160	     -4.18700928	    111.79864322	     99.66152789
      6.54000000	    -16.06389288	     -0.74241078	     -4.46557417	     -0.36205375	      0.58615771	     -0.67432174	     95.94891083	    -12.19977183	      4.50346288	    113.92798018	      1.98841836	     37.89376852	      0.89529694	     -7.49999987	     94.23202825	     -7.85355204	      6.24508098	    118.79074896	      2.07328969	     40.82697101	     -4.41832400	     -7.49999987	    -33.48918798	      1.81313676	     -0.60689317	     69.18077616	    -13.92985564	      0.31738779	    101.73736512	    106.38767571	     65.22334838	    -19.77411595	     -4.12652011	    111.76434969	     99.67025074
      6.55000000	    -16.15873370	     -0.71583896	     -4.45476137	     -0.36188332	      0.59022760	     -0.67435517	     95.53182640	    -12.13618249	      4.39020969	    113.32340853	      1.97786660	     37.81681683	      0.85015090	     -7.49999987	     93.81419153	     -7.77908927	      6.11995665	    118.17496328	      2.06254220	     40.75688683	     -4.48079220	     -7.49999987	    -33.27372334	      1.78110281	     -0.63970264	     68.96878324	    -13.97232261	      0.42521038	    101.71841109	    106.38796272	     65.09892683	    -19.74222268	     -4.07125206	    111.70297632	     99.67648405
      6.56000000	    -16.24194345	     -0.68472922	     -4.45406497	     -0.36167712	      0.59461229	     -0.67442294	     95.06183265	    -12.06473967	      4.27534720	    112.66621295	      1.96639637	     37.72205170	      0.77985350	     -7.49999987	     93.35212183	     -7.71280214	      5.96981008	    117.51307963	      2.05099015	     40.66868973	     -4.57016783	     -7.49999987	    -33.05795375	      1.73754563	     -0.67390934	     68.73076987	    -14.04668810	      0.52570796	    101.69331294	    106.38624355	     64.94863730	    -19.69835749	     -4.02229164	    111.60767224	     99.68241942
      6.57000000	    -16.33944816	     -0.64664314	     -4.44072981	     -0.36142435	      0.59913656	     -0.67447700	     94.57082735	    -11.99160497	      4.16321907	    111.99003013	      1.95459476	     37.64150141	      0.72115196	     -7.49999987	     92.89659152	     -7.66393539	      5.80839152	    116.81982979	      2.03889066	     40.57856468	     -4.63336239	     -7.49999987	    -32.81646787	      1.71067747	     -0.71048064	     68.47512798	    -14.14025437	      0.60691485	    101.66747074	    106.38481130	     64.73602755	    -19.71795427	     -3.97895489	    111.50446643	     99.68445204
      6.58000000	    -16.15118478	     -0.52211928	     -4.42726486	     -0.36113591	      0.60427985	     -0.67456325	     93.84018019	    -11.92472175	      4.13574730	    111.29181163	      1.94240854	     37.04912553	     -0.15184222	     -7.49999987	     92.08159189	     -7.59790150	      5.45394737	    116.06711817	      2.02575337	     40.02339944	     -5.56604834	     -7.49999987	    -32.88153161	      1.58353420	     -0.72149982	     68.32973147	    -14.36961028	      0.88530709	    101.67736454	    106.37131693	     64.65000135	    -19.77606350	     -3.78161441	    111.12557781	     99.70455230
      6.59000000	    -16.36016175	     -0.50492268	     -4.41519629	     -0.36083109	      0.60910664	     -0.67460627	     93.41159776	    -11.85316245	      3.97436409	    110.53522209	      1.92920356	     36.96298789	     -0.18208245	     -7.49999987	     91.69734483	     -7.51444551	      5.33713379	    115.30589136	      2.01246745	     39.90613209	     -5.61707013	     -7.49999987	    -32.49560214	      1.57351205	     -0.72855672	     67.97012408	    -14.39161135	      0.88234791	    101.62693098	    106.36184905	     64.36718165	    -19.76177363	     -3.71939275	    111.03950713	     99.70580469
      6.60000000	    -16.52805068	     -0.48145883	     -4.40031829	     -0.36045374	      0.61418268	     -0.67463111	     92.92827995	    -11.78637481	      3.82497147	    109.76315636	      1.91572848	     36.89590831	     -0.18043931	     -7.49999987	     91.22654513	     -7.44264125	      5.20893200	    114.50546341	      1.99849735	     39.82113180	     -5.62305280	     -7.49999987	    -32.13665960	      1.55096184	     -0.76001188	     67.59021776	    -14.41132585	      0.91798963	    101.56798620	    106.35699822	     64.08320723	    -19.74719968	     -3.67642439	    110.91277209	     99.69967298
      6.61000000	    -16.66179473	     -0.43211007	     -4.36852003	     -0.35996202	      0.61949166	     -0.67470813	     92.38888467	    -11.75900836	      3.70108357	    108.95870616	      1.90168817	     36.78525689	     -0.21541186	     -7.49999987	     90.69823479	     -7.35831747	      5.03967602	    113.68821880	      1.98423374	     39.70682820	     -5.66468033	     -7.49999987	    -31.78484992	      1.52506338	     -0.80240708	     67.18949547	    -14.43763232	      0.95196881	    101.49187432	    106.34954192	     63.72505904	    -19.73106216	     -3.61855613	    110.71057635	     99.68779026
      6.62000000	    -16.79422710	     -0.37914402	     -4.32132183	     -0.35942559	      0.62492545	     -0.67474721	     91.83402113	    -11.72817886	      3.58294144	    108.13905065	      1.88738248	     36.66125791	     -0.26257389	     -7.49999987	     90.15388446	     -7.26904119	      4.86101634	    112.83556030	      1.96935204	     39.58091167	     -5.71098511	     -7.49999987	    -31.41856339	      1.49391077	     -0.85874932	     66.74650342	    -14.47345365	      1.00593447	    101.39799323	    106.34158644	     63.35480314	    -19.71745179	     -3.55316857	    110.48247996	     99.67049201
